<?xml version="1.0" encoding="utf-8"?>
<svg viewBox="0 0 500 500" xmlns="http://www.w3.org/2000/svg">
  <g transform="matrix(1, 0, 0, 1, 298.004883, 20.510553)"/>
  <g transform="matrix(1, 0, 0, 1, 298.004883, 20.510553)"/>
  <g transform="matrix(1, 0, 0, 1, 298.004883, 20.510553)"/>
  <g transform="matrix(1, 0, 0, 1, 298.004883, 20.510553)"/>
  <g transform="matrix(1, 0, 0, 1, 298.004883, 20.510553)"/>
  <g transform="matrix(1, 0, 0, 1, 298.004883, 20.510553)"/>
  <g transform="matrix(1, 0, 0, 1, 298.004883, 20.510553)"/>
  <g transform="matrix(1, 0, 0, 1, 298.004883, 20.510553)"/>
  <g transform="matrix(1, 0, 0, 1, 298.004883, 20.510553)"/>
  <g transform="matrix(1, 0, 0, 1, 298.004883, 20.510553)"/>
  <g transform="matrix(1, 0, 0, 1, 298.004883, 20.510553)"/>
  <g transform="matrix(1, 0, 0, 1, 298.004883, 20.510553)"/>
  <g transform="matrix(1, 0, 0, 1, 298.004883, 20.510553)"/>
  <g transform="matrix(1, 0, 0, 1, 298.004883, 20.510553)"/>
  <g transform="matrix(1, 0, 0, 1, 298.004883, 20.510553)"/>
  <g transform="matrix(0.947961, 0, 0, 1.078963, 4.204095, -32.04509)" style="">
    <path style="fill: rgb(78, 93, 106);" d="M 256 368.182 C 231.023 368.182 210.703 388.502 210.703 413.479 C 210.703 438.456 231.023 458.776 256 458.776 C 280.977 458.776 301.297 438.456 301.297 413.479 C 301.297 388.502 280.977 368.182 256 368.182 Z"/>
    <path style="fill: rgb(116, 138, 157);" d="M 256 268.449 C 210.332 268.449 169.504 289.536 142.72 322.479 L 191.941 371.7 C 191.941 371.7 214.898 338.947 256.001 338.947 C 296.265 338.947 320.061 371.7 320.061 371.7 L 369.282 322.479 C 342.496 289.536 301.668 268.449 256 268.449 Z"/>
    <path style="fill:#86F28B;" d="M256,361.693c-24.977,0-45.297,20.32-45.297,45.297s20.32,45.297,45.297,45.297 c24.977,0,45.297-20.32,45.297-45.297S280.977,361.693,256,361.693z"/>
    <path style="fill: rgb(166, 188, 208);" d="M 256 167.789 C 182.586 167.789 116.574 200.046 71.357 251.116 L 121.284 301.043 C 153.623 262.673 202.009 238.25 256 238.25 C 309.991 238.25 358.376 262.673 390.716 301.043 L 440.643 251.116 C 395.426 200.045 329.415 167.789 256 167.789 Z"/>
    <path style="fill:#86F28B;" d="M 256 261.033 C 210.332 261.033 169.504 282.12 142.72 315.063 L 191.941 364.284 C 191.941 364.284 214.898 331.531 256.001 331.531 C 296.265 331.531 320.061 364.284 320.061 364.284 L 369.282 315.063 C 342.496 282.12 301.668 261.033 256 261.033 Z"/>
    <path style="fill: rgb(219, 226, 237);" d="M 257.055 136.416 C 338.794 136.416 412.362 172.039 463.078 228.561 L 513.055 178.584 C 509.658 174.884 418.783 65.953 257.055 65.953 C 95.118 65.953 4.452 174.883 1.055 178.584 L 51.032 228.561 C 101.748 172.038 175.316 136.416 257.055 136.416 Z"/>
    <path style="fill:#86F28B;" d="M256,130.175c81.739,0,155.307,35.623,206.023,92.145L512,172.343 c-3.397-3.7-94.272-112.631-256-112.631c-161.937,0-252.603,108.93-256,112.631l49.977,49.977 C100.693,165.797,174.261,130.175,256,130.175z"/>
    <path style="fill:#86F28B;" d="M256,160.373c-73.414,0-139.426,32.257-184.643,83.327l49.927,49.927 c32.339-38.37,80.725-62.793,134.716-62.793s102.376,24.423,134.716,62.793l49.927-49.927 C395.426,192.629,329.415,160.373,256,160.373z"/>
  </g>
  <g transform="matrix(0.947961, 0, 0, 1.078963, 4.204095, -32.04509)" style="">
    <path style="fill:#66E26F;" d="M256,361.693L256,361.693v90.594l0,0c24.977,0,45.297-20.32,45.297-45.297 S280.977,361.693,256,361.693z"/>
    <path style="fill:#66E26F;" d="M256,261.033L256,261.033v70.497l0,0c40.264,0,64.06,32.753,64.06,32.753l49.221-49.221 C342.496,282.12,301.668,261.033,256,261.033z"/>
    <path style="fill:#66E26F;" d="M256,59.713L256,59.713v70.462l0,0c81.739,0,155.307,35.623,206.023,92.145L512,172.343 C508.603,168.643,417.728,59.713,256,59.713z"/>
    <path style="fill:#66E26F;" d="M256,160.373L256,160.373v70.462l0,0c53.99,0,102.376,24.423,134.716,62.793l49.927-49.927 C395.426,192.629,329.415,160.373,256,160.373z"/>
  </g>
  <circle style="fill: rgb(78, 93, 106);" cx="273.517" cy="404.651" r="25"/>
  <path d="M 291.814 422.531 C 282.051 432.295 266.222 432.295 256.461 422.531 C 246.696 412.768 246.696 396.939 256.461 387.176 C 266.222 377.413 282.051 377.413 291.814 387.176 C 301.578 396.94 301.578 412.768 291.814 422.531 Z M 260.88 418.113 C 267.448 424.681 277.665 425.337 284.988 420.124 L 258.869 394.004 C 253.654 401.326 254.314 411.544 260.88 418.113 Z M 287.395 391.598 C 280.828 385.03 270.61 384.373 263.291 389.586 L 289.407 415.703 C 294.62 408.384 293.962 398.165 287.395 391.598 Z" style="fill: rgb(255, 42, 42);"/>
  <g id="content" transform="matrix(1, 0, 0, 1, 58.165546, 44.494091)">
    <g id="voice" transform="translate(389.891 91.373) rotate(60)" opacity="0">
      <circle id="ellipse" cx="7.156" cy="7.156" r="7.156" transform="translate(128 304)" fill="#7bed8d"/>
      <g id="icon-mic" transform="translate(132.89 307.817)">
        <path id="path" d="M715.533,618.953v.922a2.212,2.212,0,0,1-2.212,2.212h0a2.212,2.212,0,0,1-2.212-2.212v-.922" transform="translate(-711.109 -617.11)" fill="none" stroke="#fff" stroke-linecap="round" stroke-linejoin="round" stroke-width="4"/>
        <rect id="rectangle" width="1.984" height="3.776" rx="0.992" transform="translate(1.22 0)" fill="none" stroke="#fff" stroke-linecap="round" stroke-linejoin="round" stroke-width="4"/>
        <line id="line" y2="1.773" transform="translate(2.212 4.977)" fill="none" stroke="#fff" stroke-linecap="round" stroke-linejoin="round" stroke-width="4"/>
        <line id="line-2" data-name="line" x1="2.402" transform="translate(1.011 6.75)" fill="none" stroke="#fff" stroke-linecap="round" stroke-linejoin="round" stroke-width="4"/>
      </g>
    </g>
    <g id="loading">
      <circle id="ellipse-8" cx="6.792" cy="6.792" r="6.792" transform="translate(194.792 295.742) rotate(90)" fill="#7bed8d"/>
      <circle id="ellipse-7" cx="6.792" cy="6.792" r="6.792" transform="translate(256.258 370.792) rotate(180)" fill="#7bed8d"/>
      <circle id="ellipse-6" cx="6.792" cy="6.792" r="6.792" transform="translate(194.792 418.674) rotate(90)" fill="#7bed8d"/>
      <circle id="ellipse-5" cx="6.792" cy="6.792" r="6.792" transform="translate(133.326 370.792) rotate(180)" fill="#7bed8d"/>
      <circle id="ellipse-4" cx="3.396" cy="3.396" r="3.396" transform="translate(234.898 323.69) rotate(180)" fill="#7bed8d"/>
      <circle id="ellipse-3" cx="3.396" cy="3.396" r="3.396" transform="translate(228.106 410.616) rotate(-90)" fill="#7bed8d"/>
      <circle id="ellipse-2" cx="3.396" cy="3.396" r="3.396" transform="translate(147.972 410.616) rotate(180)" fill="#7bed8d"/>
      <circle id="ellipse-1" cx="3.396" cy="3.396" r="3.396" transform="translate(141.18 323.69) rotate(-90)" fill="#7bed8d"/>
    </g>
  </g>
  <ellipse style="fill: rgb(123, 237, 141);" cx="218.537" cy="405.644" rx="23.526" ry="23.243"/>
  <path style="fill: rgb(78, 93, 106);" d="M 219.696 380.905 C 205.89 380.905 194.696 392.098 194.696 405.905 C 194.696 419.712 205.89 430.905 219.696 430.905 C 233.504 430.905 244.696 419.712 244.696 405.905 C 244.696 392.098 233.504 380.905 219.696 380.905 Z M 215.11 418.747 L 204.103 407.74 L 207.77 404.07 L 215.11 411.409 L 231.622 394.897 L 235.289 398.566 L 215.11 418.747 Z"/>
  <g transform="matrix(1, 0, 0, 1, 298.004883, 52.004635)"/>
  <g transform="matrix(1, 0, 0, 1, 298.004883, 52.004635)"/>
  <g transform="matrix(1, 0, 0, 1, 298.004883, 52.004635)"/>
  <g transform="matrix(1, 0, 0, 1, 298.004883, 52.004635)"/>
  <g transform="matrix(1, 0, 0, 1, 298.004883, 52.004635)"/>
  <g transform="matrix(1, 0, 0, 1, 298.004883, 52.004635)"/>
  <g transform="matrix(1, 0, 0, 1, 298.004883, 52.004635)"/>
  <g transform="matrix(1, 0, 0, 1, 298.004883, 52.004635)"/>
  <g transform="matrix(1, 0, 0, 1, 298.004883, 52.004635)"/>
  <g transform="matrix(1, 0, 0, 1, 298.004883, 52.004635)"/>
  <g transform="matrix(1, 0, 0, 1, 298.004883, 52.004635)"/>
  <g transform="matrix(1, 0, 0, 1, 298.004883, 52.004635)"/>
  <g transform="matrix(1, 0, 0, 1, 298.004883, 52.004635)"/>
  <g transform="matrix(1, 0, 0, 1, 298.004883, 52.004635)"/>
  <g transform="matrix(1, 0, 0, 1, 298.004883, 52.004635)"/>
</svg>