<?xml version="1.0" encoding="utf-8"?>
<svg viewBox="0 0 500 500" xmlns="http://www.w3.org/2000/svg">
  <g style="" transform="matrix(0.961247, 0, 0, 1.1443, 4.369621, -43.727077)">
    <path style="fill: rgb(219, 226, 237);" d="M256,361.693c-24.977,0-45.297,20.32-45.297,45.297s20.32,45.297,45.297,45.297 c24.977,0,45.297-20.32,45.297-45.297S280.977,361.693,256,361.693z"/>
    <path style="fill: rgb(219, 226, 237);" d="M256,261.033c-45.668,0-86.496,21.087-113.28,54.03l49.221,49.221c0,0,22.957-32.753,64.06-32.753 c40.264,0,64.06,32.753,64.06,32.753l49.221-49.221C342.496,282.12,301.668,261.033,256,261.033z"/>
    <path style="fill: rgb(219, 226, 237);" d="M256,130.175c81.739,0,155.307,35.623,206.023,92.145L512,172.343 c-3.397-3.7-94.272-112.631-256-112.631c-161.937,0-252.603,108.93-256,112.631l49.977,49.977 C100.693,165.797,174.261,130.175,256,130.175z"/>
    <path style="fill: rgb(219, 226, 237);" d="M256,160.373c-73.414,0-139.426,32.257-184.643,83.327l49.927,49.927 c32.339-38.37,80.725-62.793,134.716-62.793s102.376,24.423,134.716,62.793l49.927-49.927 C395.426,192.629,329.415,160.373,256,160.373z"/>
  </g>
  <g style="" transform="matrix(0.961247, 0, 0, 1.1443, 4.369621, -43.727077)">
    <path style="fill: rgb(116, 138, 157);" d="M256,361.693L256,361.693v90.594l0,0c24.977,0,45.297-20.32,45.297-45.297 S280.977,361.693,256,361.693z"/>
    <path style="fill: rgb(116, 138, 157);" d="M256,261.033L256,261.033v70.497l0,0c40.264,0,64.06,32.753,64.06,32.753l49.221-49.221 C342.496,282.12,301.668,261.033,256,261.033z"/>
    <path style="fill: rgb(116, 138, 157);" d="M256,59.713L256,59.713v70.462l0,0c81.739,0,155.307,35.623,206.023,92.145L512,172.343 C508.603,168.643,417.728,59.713,256,59.713z"/>
    <path style="fill: rgb(116, 138, 157);" d="M256,160.373L256,160.373v70.462l0,0c53.99,0,102.376,24.423,134.716,62.793l49.927-49.927 C395.426,192.629,329.415,160.373,256,160.373z"/>
  </g>
  <g transform="matrix(1, 0, 0, 1, 298.004883, 20.510553)"/>
  <g transform="matrix(1, 0, 0, 1, 298.004883, 20.510553)"/>
  <g transform="matrix(1, 0, 0, 1, 298.004883, 20.510553)"/>
  <g transform="matrix(1, 0, 0, 1, 298.004883, 20.510553)"/>
  <g transform="matrix(1, 0, 0, 1, 298.004883, 20.510553)"/>
  <g transform="matrix(1, 0, 0, 1, 298.004883, 20.510553)"/>
  <g transform="matrix(1, 0, 0, 1, 298.004883, 20.510553)"/>
  <g transform="matrix(1, 0, 0, 1, 298.004883, 20.510553)"/>
  <g transform="matrix(1, 0, 0, 1, 298.004883, 20.510553)"/>
  <g transform="matrix(1, 0, 0, 1, 298.004883, 20.510553)"/>
  <g transform="matrix(1, 0, 0, 1, 298.004883, 20.510553)"/>
  <g transform="matrix(1, 0, 0, 1, 298.004883, 20.510553)"/>
  <g transform="matrix(1, 0, 0, 1, 298.004883, 20.510553)"/>
  <g transform="matrix(1, 0, 0, 1, 298.004883, 20.510553)"/>
  <g transform="matrix(1, 0, 0, 1, 298.004883, 20.510553)"/>
  <circle style="fill: rgb(78, 93, 106);" cx="267.879" cy="220.606" r="93.28" transform="matrix(0.811581, 0, 0, 0.814829, 32.897831, 41.758869)"/>
  <path d="M 303.386 274.94 C 274.099 304.232 226.61 304.232 197.323 274.94 C 168.032 245.653 168.032 198.165 197.323 168.878 C 226.61 139.586 274.099 139.586 303.386 168.878 C 332.677 198.169 332.677 245.653 303.386 274.94 Z M 210.584 261.684 C 230.285 281.385 260.941 283.359 282.907 267.717 L 204.551 189.362 C 188.909 211.327 190.884 241.978 210.584 261.684 Z M 290.13 182.138 C 270.429 162.437 239.773 160.464 217.812 176.106 L 296.168 254.456 C 311.805 232.495 309.832 201.84 290.13 182.138 Z" style="fill: rgb(201, 35, 35);"/>
</svg>