<?xml version="1.0" encoding="utf-8"?>
<svg viewBox="0 0 500 500" xmlns="http://www.w3.org/2000/svg">
  <g style="" transform="matrix(0.961247, 0, 0, 1.1443, 4.369621, -43.727077)">
    <path style="fill: rgb(245, 238, 160);" d="M256,361.693c-24.977,0-45.297,20.32-45.297,45.297s20.32,45.297,45.297,45.297 c24.977,0,45.297-20.32,45.297-45.297S280.977,361.693,256,361.693z"/>
    <path style="fill: rgb(245, 238, 160);" d="M256,261.033c-45.668,0-86.496,21.087-113.28,54.03l49.221,49.221c0,0,22.957-32.753,64.06-32.753 c40.264,0,64.06,32.753,64.06,32.753l49.221-49.221C342.496,282.12,301.668,261.033,256,261.033z"/>
    <path style="fill: rgb(245, 238, 160);" d="M256,130.175c81.739,0,155.307,35.623,206.023,92.145L512,172.343 c-3.397-3.7-94.272-112.631-256-112.631c-161.937,0-252.603,108.93-256,112.631l49.977,49.977 C100.693,165.797,174.261,130.175,256,130.175z"/>
    <path style="fill: rgb(245, 238, 160);" d="M256,160.373c-73.414,0-139.426,32.257-184.643,83.327l49.927,49.927 c32.339-38.37,80.725-62.793,134.716-62.793s102.376,24.423,134.716,62.793l49.927-49.927 C395.426,192.629,329.415,160.373,256,160.373z"/>
  </g>
  <g style="" transform="matrix(0.961247, 0, 0, 1.1443, 4.369621, -43.727077)">
    <path style="fill: rgb(230, 213, 19);" d="M256,361.693L256,361.693v90.594l0,0c24.977,0,45.297-20.32,45.297-45.297 S280.977,361.693,256,361.693z"/>
    <path style="fill: rgb(230, 213, 19);" d="M256,261.033L256,261.033v70.497l0,0c40.264,0,64.06,32.753,64.06,32.753l49.221-49.221 C342.496,282.12,301.668,261.033,256,261.033z"/>
    <path style="fill: rgb(230, 213, 19);" d="M256,59.713L256,59.713v70.462l0,0c81.739,0,155.307,35.623,206.023,92.145L512,172.343 C508.603,168.643,417.728,59.713,256,59.713z"/>
    <path style="fill: rgb(230, 213, 19);" d="M256,160.373L256,160.373v70.462l0,0c53.99,0,102.376,24.423,134.716,62.793l49.927-49.927 C395.426,192.629,329.415,160.373,256,160.373z"/>
  </g>
  <g transform="matrix(1, 0, 0, 1, 298.004883, 20.510553)"/>
  <g transform="matrix(1, 0, 0, 1, 298.004883, 20.510553)"/>
  <g transform="matrix(1, 0, 0, 1, 298.004883, 20.510553)"/>
  <g transform="matrix(1, 0, 0, 1, 298.004883, 20.510553)"/>
  <g transform="matrix(1, 0, 0, 1, 298.004883, 20.510553)"/>
  <g transform="matrix(1, 0, 0, 1, 298.004883, 20.510553)"/>
  <g transform="matrix(1, 0, 0, 1, 298.004883, 20.510553)"/>
  <g transform="matrix(1, 0, 0, 1, 298.004883, 20.510553)"/>
  <g transform="matrix(1, 0, 0, 1, 298.004883, 20.510553)"/>
  <g transform="matrix(1, 0, 0, 1, 298.004883, 20.510553)"/>
  <g transform="matrix(1, 0, 0, 1, 298.004883, 20.510553)"/>
  <g transform="matrix(1, 0, 0, 1, 298.004883, 20.510553)"/>
  <g transform="matrix(1, 0, 0, 1, 298.004883, 20.510553)"/>
  <g transform="matrix(1, 0, 0, 1, 298.004883, 20.510553)"/>
  <g transform="matrix(1, 0, 0, 1, 298.004883, 20.510553)"/>
  <circle style="fill: rgb(78, 93, 106);" cx="267.879" cy="220.606" r="93.28" transform="matrix(0.807861, 0, 0, 0.822447, 33.894119, 58.866337)"/>
  <path d="M 175.574 237.409 C 205.004 180.569 285.914 176.418 321.194 229.927 C 322.784 232.346 324.254 234.848 325.574 237.409 C 296.144 294.248 215.234 298.407 179.954 244.89 C 178.364 242.48 176.894 239.978 175.574 237.409 Z M 250.574 267.546 C 274.124 267.546 288.884 242.434 277.094 222.34 C 271.634 213.02 261.524 207.272 250.574 207.272 C 227.024 207.272 212.294 232.39 224.054 252.477 C 229.544 261.805 239.624 267.546 250.574 267.546 Z M 250.574 252.477 C 238.784 252.477 231.434 239.926 237.314 229.874 C 240.044 225.218 245.114 222.34 250.574 222.34 C 262.364 222.34 269.714 234.9 263.834 244.943 C 261.104 249.607 256.034 252.477 250.574 252.477 Z" style="fill: rgb(123, 237, 141);"/>
</svg>