<svg xmlns="http://www.w3.org/2000/svg" width="486.355" height="540.185" viewBox="0 0 486.355 540.185">
  <g id="Grupo_1550" data-name="Grupo 1550" transform="translate(-5096.322 3791.185)">
    <g id="Grupo_1549" data-name="Grupo 1549" transform="translate(5395.178 -3841.901)">
      <g id="logotipo" transform="translate(-303.06 18.334)">
        <g id="Grupo_1547" data-name="Grupo 1547" transform="translate(4.204 -32.045)">
          <path id="Caminho_958" data-name="Caminho 958" d="M242.678,397.254c-23.677,0-42.94,21.924-42.94,48.874S219,495,242.678,495s42.94-21.924,42.94-48.874S266.355,397.254,242.678,397.254Z" fill="#4e5d6a"/>
          <path id="Caminho_959" data-name="Caminho 959" d="M242.678,289.646c-43.291,0-81.995,22.752-107.385,58.3l46.66,53.108s21.762-35.339,60.726-35.339c38.169,0,60.726,35.339,60.726,35.339l46.66-53.108C324.673,312.4,285.969,289.646,242.678,289.646Z" fill="#748a9d"/>
          <path id="Caminho_960" data-name="Caminho 960" d="M242.678,390.252c-23.677,0-42.94,21.924-42.94,48.874S219,488,242.678,488s42.94-21.924,42.94-48.874S266.355,390.252,242.678,390.252Z" fill="#86f28b"/>
          <path id="Caminho_961" data-name="Caminho 961" d="M242.678,181.038c-69.594,0-132.17,34.8-175.034,89.906l47.329,53.869c30.656-41.4,76.524-67.751,127.705-67.751s97.048,26.351,127.705,67.751l47.329-53.869C374.848,215.841,312.272,181.038,242.678,181.038Z" fill="#a6bcd0"/>
          <path id="Caminho_962" data-name="Caminho 962" d="M242.678,281.644c-43.291,0-81.995,22.752-107.385,58.3l46.66,53.108s21.762-35.339,60.726-35.339c38.169,0,60.726,35.339,60.726,35.339l46.66-53.108C324.673,304.4,285.969,281.644,242.678,281.644Z" fill="#86f28b"/>
          <path id="Caminho_963" data-name="Caminho 963" d="M243.678,147.187c77.485,0,147.225,38.436,195.3,99.421l47.376-53.923c-3.22-3.992-89.366-121.524-242.678-121.524C90.168,71.161,4.22,188.692,1,192.685l47.376,53.923C96.453,185.622,166.193,147.187,243.678,147.187Z" fill="#dbe2ed"/>
          <path id="Caminho_964" data-name="Caminho 964" d="M242.678,140.454c77.485,0,147.225,38.436,195.3,99.421l47.376-53.923c-3.22-3.992-89.366-121.524-242.678-121.524C89.168,64.427,3.22,181.958,0,185.951l47.376,53.923C95.453,178.888,165.192,140.454,242.678,140.454Z" fill="#86f28b"/>
          <path id="Caminho_965" data-name="Caminho 965" d="M242.678,173.036c-69.594,0-132.17,34.8-175.034,89.907l47.329,53.869c30.656-41.4,76.524-67.751,127.705-67.751s97.048,26.351,127.705,67.751l47.329-53.869C374.848,207.839,312.272,173.036,242.678,173.036Z" fill="#86f28b"/>
        </g>
        <g id="Grupo_1548" data-name="Grupo 1548" transform="translate(4.204 -32.045)">
          <path id="Caminho_966" data-name="Caminho 966" d="M242.678,390.252h0V488h0c23.677,0,42.94-21.924,42.94-48.874S266.355,390.252,242.678,390.252Z" fill="#66e26f"/>
          <path id="Caminho_967" data-name="Caminho 967" d="M242.678,281.644h0v76.063h0c38.169,0,60.726,35.339,60.726,35.339l46.66-53.107C324.673,304.4,285.969,281.644,242.678,281.644Z" fill="#66e26f"/>
          <path id="Caminho_968" data-name="Caminho 968" d="M242.678,64.428h0v76.026h0c77.485,0,147.225,38.436,195.3,99.421l47.376-53.923C482.135,181.959,395.989,64.428,242.678,64.428Z" fill="#66e26f"/>
          <path id="Caminho_969" data-name="Caminho 969" d="M242.678,173.036h0v76.026h0c51.18,0,97.048,26.351,127.705,67.751l47.329-53.869C374.848,207.839,312.272,173.036,242.678,173.036Z" fill="#66e26f"/>
        </g>
        <circle id="Elipse_500" data-name="Elipse 500" cx="25" cy="25" r="25" transform="translate(248.517 379.651)" fill="#4e5d6a"/>
        <path id="Caminho_970" data-name="Caminho 970" d="M291.814,422.531a25,25,0,1,1,0-35.355A25,25,0,0,1,291.814,422.531Zm-30.934-4.418a18.74,18.74,0,0,0,24.108,2.011L258.869,394A18.742,18.742,0,0,0,260.88,418.113ZM287.395,391.6a18.735,18.735,0,0,0-24.1-2.012L289.407,415.7A18.738,18.738,0,0,0,287.395,391.6Z" fill="#ff2a2a"/>
        <g id="content" transform="translate(58.166 44.494)">
          <g id="voice" transform="translate(389.891 91.373) rotate(60)" opacity="0">
            <circle id="ellipse" cx="7.156" cy="7.156" r="7.156" transform="translate(128 304)" fill="#7bed8d"/>
            <g id="icon-mic" transform="translate(132.89 307.817)">
              <path id="path" d="M715.533,618.953v.922a2.212,2.212,0,0,1-2.212,2.212h0a2.212,2.212,0,0,1-2.212-2.212v-.922" transform="translate(-711.109 -617.11)" fill="none" stroke="#fff" stroke-linecap="round" stroke-linejoin="round" stroke-width="4"/>
              <rect id="rectangle" width="1.984" height="3.776" rx="0.992" transform="translate(1.22)" fill="none" stroke="#fff" stroke-linecap="round" stroke-linejoin="round" stroke-width="4"/>
              <line id="line" y2="1.773" transform="translate(2.212 4.977)" fill="none" stroke="#fff" stroke-linecap="round" stroke-linejoin="round" stroke-width="4"/>
              <line id="line-2" data-name="line" x1="2.402" transform="translate(1.011 6.75)" fill="none" stroke="#fff" stroke-linecap="round" stroke-linejoin="round" stroke-width="4"/>
            </g>
          </g>
          <g id="loading">
            <circle id="ellipse-8" cx="6.792" cy="6.792" r="6.792" transform="translate(194.792 295.742) rotate(90)" fill="#7bed8d"/>
            <circle id="ellipse-7" cx="6.792" cy="6.792" r="6.792" transform="translate(256.258 370.792) rotate(180)" fill="#7bed8d"/>
            <circle id="ellipse-6" cx="6.792" cy="6.792" r="6.792" transform="translate(194.792 418.674) rotate(90)" fill="#7bed8d"/>
            <circle id="ellipse-5" cx="6.792" cy="6.792" r="6.792" transform="translate(133.326 370.792) rotate(180)" fill="#7bed8d"/>
            <circle id="ellipse-4" cx="3.396" cy="3.396" r="3.396" transform="translate(234.898 323.69) rotate(180)" fill="#7bed8d"/>
            <circle id="ellipse-3" cx="3.396" cy="3.396" r="3.396" transform="translate(228.106 410.616) rotate(-90)" fill="#7bed8d"/>
            <circle id="ellipse-2" cx="3.396" cy="3.396" r="3.396" transform="translate(147.972 410.616) rotate(180)" fill="#7bed8d"/>
            <circle id="ellipse-1" cx="3.396" cy="3.396" r="3.396" transform="translate(141.18 323.69) rotate(-90)" fill="#7bed8d"/>
          </g>
        </g>
        <ellipse id="Elipse_501" data-name="Elipse 501" cx="23.526" cy="23.243" rx="23.526" ry="23.243" transform="translate(195.011 382.401)" fill="#7bed8d"/>
        <path id="Caminho_971" data-name="Caminho 971" d="M219.7,380.9a25,25,0,1,0,25,25A25,25,0,0,0,219.7,380.9Zm-4.586,37.842L204.1,407.74l3.667-3.67,7.34,7.339L231.622,394.9l3.667,3.669Z" fill="#4e5d6a"/>
      </g>
    </g>
    <text id="BlockFi" transform="translate(5340 -3269)" fill="#7bed8d" font-size="72" font-family="SegoeUI, Segoe UI" letter-spacing="-0.01em"><tspan x="-109.11" y="0">BlockFi</tspan></text>
  </g>
</svg>
