<?xml version="1.0" encoding="utf-8"?>
<svg viewBox="0 0 500 500" xmlns="http://www.w3.org/2000/svg">
  <g style="" transform="matrix(0.961247, 0, 0, 1.1443, 4.369621, -43.727077)">
    <path style="fill:#86F28B;" d="M256,361.693c-24.977,0-45.297,20.32-45.297,45.297s20.32,45.297,45.297,45.297 c24.977,0,45.297-20.32,45.297-45.297S280.977,361.693,256,361.693z"/>
    <path style="fill:#86F28B;" d="M256,261.033c-45.668,0-86.496,21.087-113.28,54.03l49.221,49.221c0,0,22.957-32.753,64.06-32.753 c40.264,0,64.06,32.753,64.06,32.753l49.221-49.221C342.496,282.12,301.668,261.033,256,261.033z"/>
    <path style="fill:#86F28B;" d="M256,130.175c81.739,0,155.307,35.623,206.023,92.145L512,172.343 c-3.397-3.7-94.272-112.631-256-112.631c-161.937,0-252.603,108.93-256,112.631l49.977,49.977 C100.693,165.797,174.261,130.175,256,130.175z"/>
    <path style="fill:#86F28B;" d="M256,160.373c-73.414,0-139.426,32.257-184.643,83.327l49.927,49.927 c32.339-38.37,80.725-62.793,134.716-62.793s102.376,24.423,134.716,62.793l49.927-49.927 C395.426,192.629,329.415,160.373,256,160.373z"/>
  </g>
  <g style="" transform="matrix(0.961247, 0, 0, 1.1443, 4.369621, -43.727077)">
    <path style="fill:#66E26F;" d="M256,361.693L256,361.693v90.594l0,0c24.977,0,45.297-20.32,45.297-45.297 S280.977,361.693,256,361.693z"/>
    <path style="fill:#66E26F;" d="M256,261.033L256,261.033v70.497l0,0c40.264,0,64.06,32.753,64.06,32.753l49.221-49.221 C342.496,282.12,301.668,261.033,256,261.033z"/>
    <path style="fill:#66E26F;" d="M256,59.713L256,59.713v70.462l0,0c81.739,0,155.307,35.623,206.023,92.145L512,172.343 C508.603,168.643,417.728,59.713,256,59.713z"/>
    <path style="fill:#66E26F;" d="M256,160.373L256,160.373v70.462l0,0c53.99,0,102.376,24.423,134.716,62.793l49.927-49.927 C395.426,192.629,329.415,160.373,256,160.373z"/>
  </g>
  <circle style="fill: rgb(123, 237, 141);" cx="251.516" cy="222.424" r="64.237"/>
  <path style="fill: rgb(78, 93, 106);" d="M 250.555 146.36 C 209.136 146.36 175.555 179.939 175.555 221.36 C 175.555 262.781 209.136 296.36 250.555 296.36 C 291.979 296.36 325.555 262.781 325.555 221.36 C 325.555 179.939 291.978 146.36 250.555 146.36 Z M 236.797 259.886 L 203.773 226.864 L 214.78 215.855 L 236.797 237.872 L 286.332 188.336 L 297.337 199.345 L 236.797 259.886 Z"/>
  <g transform="matrix(1, 0, 0, 1, 298.004883, 20.510553)"/>
  <g transform="matrix(1, 0, 0, 1, 298.004883, 20.510553)"/>
  <g transform="matrix(1, 0, 0, 1, 298.004883, 20.510553)"/>
  <g transform="matrix(1, 0, 0, 1, 298.004883, 20.510553)"/>
  <g transform="matrix(1, 0, 0, 1, 298.004883, 20.510553)"/>
  <g transform="matrix(1, 0, 0, 1, 298.004883, 20.510553)"/>
  <g transform="matrix(1, 0, 0, 1, 298.004883, 20.510553)"/>
  <g transform="matrix(1, 0, 0, 1, 298.004883, 20.510553)"/>
  <g transform="matrix(1, 0, 0, 1, 298.004883, 20.510553)"/>
  <g transform="matrix(1, 0, 0, 1, 298.004883, 20.510553)"/>
  <g transform="matrix(1, 0, 0, 1, 298.004883, 20.510553)"/>
  <g transform="matrix(1, 0, 0, 1, 298.004883, 20.510553)"/>
  <g transform="matrix(1, 0, 0, 1, 298.004883, 20.510553)"/>
  <g transform="matrix(1, 0, 0, 1, 298.004883, 20.510553)"/>
  <g transform="matrix(1, 0, 0, 1, 298.004883, 20.510553)"/>
</svg>